<?xml version="1.0" standalone="no"?>
<!DOCTYPE svg PUBLIC "-//W3C//DTD SVG 20010904//EN"
 "http://www.w3.org/TR/2001/REC-SVG-20010904/DTD/svg10.dtd">
<svg version="1.0" xmlns="http://www.w3.org/2000/svg"
 width="298.000000pt" height="298.000000pt" viewBox="0 0 298.000000 298.000000"
 preserveAspectRatio="xMidYMid meet">
<metadata>
Created by potrace 1.11, written by Peter Selinger 2001-2013
</metadata>
<g transform="translate(0.000000,298.000000) scale(0.100000,-0.100000)"
fill="#000000" stroke="none">
<path d="M1345 2974 c-290 -42 -483 -112 -695 -252 -112 -74 -318 -280 -392
-392 -115 -174 -194 -367 -234 -570 -27 -141 -25 -418 4 -557 128 -599 571
-1037 1182 -1169 128 -28 438 -25 573 4 134 30 234 64 352 122 417 203 705
573 807 1037 29 135 32 445 4 573 -66 309 -199 558 -409 770 -207 209 -470
351 -760 411 -98 20 -357 34 -432 23z m153 -680 c82 -34 131 -111 132 -203 0
-65 -29 -132 -70 -162 l-27 -21 28 -136 c16 -76 31 -147 34 -159 5 -21 11 -23
79 -23 78 0 111 -15 100 -45 -9 -23 -472 -22 -480 0 -12 29 15 44 85 47 l67 3
-30 139 c-29 129 -33 140 -56 146 -100 27 -160 104 -160 205 0 95 45 169 125
206 49 23 123 24 173 3z m360 -806 c7 -7 12 -20 12 -30 0 -17 -19 -18 -345
-18 -326 0 -345 1 -345 18 0 41 12 42 345 42 236 0 324 -3 333 -12z m77 -83
c14 -13 25 -33 25 -45 0 -19 6 -20 92 -20 132 0 128 6 128 -201 0 -162 -1
-168 -22 -183 -20 -14 -96 -16 -630 -16 -668 0 -638 -3 -638 61 0 32 -3 34
-29 19 -31 -16 -46 -65 -31 -100 21 -52 58 -63 225 -70 118 -6 162 -11 205
-28 62 -25 140 -83 165 -126 17 -27 17 -29 -4 -49 l-21 -21 -37 35 c-96 91
-153 110 -333 113 -156 3 -187 13 -242 74 -42 47 -55 95 -38 146 13 39 68 93
105 102 25 6 25 8 25 107 0 116 10 137 67 137 26 0 36 5 40 20 4 13 14 20 30
20 16 0 27 -7 30 -20 3 -13 14 -20 29 -20 19 0 24 5 24 24 0 15 11 33 26 45
26 20 37 21 406 21 l379 0 24 -25z"/>
<path d="M1440 2205 c-11 -13 -8 -21 15 -45 22 -23 28 -38 27 -67 -3 -63 42
-74 58 -14 22 81 -56 179 -100 126z"/>
</g>
</svg>
