<svg width="345" height="345" viewBox="0 0 345 345" xmlns="http://www.w3.org/2000/svg"><title>circle-chat</title><g fill="none" fill-rule="evenodd"><circle fill="#48AFE3" cx="172.5" cy="172.5" r="172.5"/><g fill="#FFF"><path d="M233.356 162.73c0-21.92-22.555-39.754-50.28-39.754-27.723 0-50.28 17.833-50.28 39.754 0 21.92 22.557 39.753 50.28 39.753 2.332 0 4.672-.127 6.972-.38 10.678 6.397 18.56 9.897 23.446 10.41.17.017.34.025.51.025 1.568 0 3.02-.737 3.886-1.974.967-1.383 1.03-3.14.17-4.57-.04-.068-3.81-6.554-2.723-12.75 11.47-7.567 18.02-18.627 18.02-30.514zm-63.934 6.004c-4.114 0-7.448-3.145-7.448-7.022 0-3.877 3.334-7.02 7.448-7.02 4.113 0 7.45 3.143 7.45 7.02s-3.337 7.022-7.45 7.022zm27.312 0c-4.115 0-7.45-3.145-7.45-7.022 0-3.877 3.335-7.02 7.45-7.02 4.112 0 7.447 3.143 7.447 7.02.01 3.877-3.33 7.022-7.44 7.022z"/><path d="M143.42 194.535c-4.99-3.895-8.922-8.453-11.688-13.55-2.916-5.372-4.395-11.087-4.395-16.986 0-5.9 1.48-11.62 4.395-16.99.223-.41.457-.82.695-1.22-12.315 6.65-20.4 17.75-20.4 30.3 0 11.27 6.443 21.73 17.697 28.76 2.08 7.7-2.745 15.85-2.796 15.94-.287.47-.266 1.06.055 1.52.29.41.777.652 1.295.652.057 0 .114 0 .172-.01 5.63-.59 15.546-5.984 23.058-10.533 2.53.322 5.116.486 7.696.486 9.868 0 19.036-2.38 26.617-6.44-1.69.13-3.39.196-5.1.196-14.02 0-27.26-4.313-37.3-12.143z"/></g></g></svg>