<svg width="345" height="345" viewBox="0 0 345 345" xmlns="http://www.w3.org/2000/svg"><title>Untitled</title><g fill="none" fill-rule="evenodd"><circle fill="#48AFE3" cx="172.5" cy="172.5" r="172.5"/><g fill="#FFF"><path d="M149.463 133.277c4.66.49 9.688 2.48 13.42 5.654-.876-2.606-.962-5.18-.397-6.713.34-.916.59-1.937.39-3.01-.707-4.015-4.97-7.26-9.605-7.26-4.606 0-7.76 3.245-7.046 7.26.016.058.053.114.067.17.036.093-3.62.784-6.862 3.65-.27.236-.72.76-1.237 1.393 2.968-1.02 6.685-1.607 11.274-1.143z"/><path d="M238.41 179.823c-.142-.31-.287-.618-.434-.92-.233-.506-2.868-4.28-5.867-8.452 0 0-11.12-16.45-19.1-27.62-1.88-1.916-6.83-6.93-17.19-5.855-5.858.61-12.714 4.093-14.93 9.427-.3 1.99-.597 3.598-.854 3.598-.628 0-1.367-2.32-3.145-4.087-1.047-1.04-2.64-1.687-4.246-1.687-1.6 0-3.112.646-4.15 1.69-1.777 1.777-2.866 4.084-3.49 4.084-.12 0-.325-1.067-.57-2.522-1.667-5.95-9.104-9.85-15.355-10.5-10.1-1.046-15.04 3.68-17.017 5.687-7.947 11.15-19.165 27.795-19.165 27.795-3 4.16-5.632 7.95-5.866 8.45-.144.306-.28.612-.408.94-1.482 3.543-2.315 7.42-2.315 11.488 0 16.623 12.86 30.06 29.477 30.06 16.595 0 29.43-13.437 29.43-30.06v-4.61c0-2.554 1.942-6.263 4.265-7.127 1.307-.493 3.11-.76 4.716-.76 1.606 0 3.865.27 5.174.76 2.324.865 4.43 4.574 4.43 7.13v4.61c0 16.62 12.846 30.057 29.432 30.057 16.595 0 29.457-13.436 29.457-30.06 0-4.068-.813-7.945-2.283-11.51l.003-.004zm-104.003 33.175c-11.96 0-21.648-9.72-21.648-21.662 0-11.932 9.686-21.64 21.646-21.64 11.928 0 21.64 9.708 21.64 21.64.002 11.94-9.712 21.662-21.64 21.662zm37.948-43.377c-4.474 0-8.2-3.23-5.722-5.72 1.474-1.46 3.49-2.37 5.733-2.37 2.23 0 4.242.906 5.703 2.372 2.48 2.48-1.254 5.72-5.716 5.72zm39.17 42c-11.478 0-20.832-9.355-20.832-20.822 0-11.483 9.37-20.827 20.83-20.827 11.493 0 20.813 9.344 20.813 20.828 0 11.467-9.322 20.824-20.812 20.824z"/><path d="M182.135 138.83c3.724-3.117 8.695-5.074 13.304-5.556 4.623-.468 8.352.133 11.33 1.166-.573-.706-1.064-1.277-1.347-1.523-3.186-2.776-6.74-3.452-6.713-3.546.023-.054.035-.11.05-.17.713-4.01-2.466-7.254-7.11-7.254-4.61 0-8.95 3.245-9.664 7.26-.195 1.07-.093 2.09.233 3.01.557 1.52.74 4.047-.086 6.615z"/></g></g></svg>