<svg width="38" height="38" viewBox="0 0 38 38" xmlns="http://www.w3.org/2000/svg"><title>Untitled</title><path d="M.165 18.98c0 10.42 8.48 18.9 18.9 18.9 10.42 0 18.9-8.48 18.9-18.9 0-10.42-8.48-18.9-18.9-18.9-10.42 0-18.9 8.48-18.9 18.9zm14.774-.01v2.602h4.408c-.177 1.117-1.332 3.275-4.41 3.275-2.653 0-4.82-2.147-4.82-4.793 0-2.647 2.167-4.794 4.82-4.794 1.512 0 2.522.63 3.1 1.17l2.11-1.983c-1.355-1.237-3.11-1.985-5.21-1.985-4.297 0-7.773 3.395-7.773 7.592 0 4.197 3.476 7.59 7.774 7.59 4.486 0 7.463-3.08 7.463-7.417 0-.5-.056-.878-.122-1.258h-7.34zm15.626-.437h-2.22v-2.17h-2.222v2.17h-2.22v2.17h2.22v2.168h2.22v-2.168h2.222v-2.17z" fill="#3498db" fill-rule="evenodd"/></svg>