<svg xmlns="http://www.w3.org/2000/svg" width="38" height="38" viewBox="0 0 38 38"><path fill="#3498db" d="M19.034 0C8.54 0 0 8.54 0 19.034s8.54 19.034 19.034 19.034 19.034-8.54 19.034-19.034S29.53 0 19.034 0zm8.492 14.678c.008.188.012.38.012.568 0 5.79-4.405 12.464-12.465 12.464-2.474 0-4.777-.724-6.715-1.967.343.04.69.062 1.045.062 2.053 0 3.94-.7 5.44-1.876-1.916-.036-3.535-1.302-4.09-3.044.266.05.54.078.822.078.4 0 .787-.05 1.155-.15-2.004-.403-3.514-2.173-3.514-4.297v-.055c.59.327 1.266.525 1.984.547-1.174-.786-1.948-2.127-1.948-3.647 0-.804.216-1.557.592-2.204 2.16 2.65 5.39 4.394 9.03 4.578-.076-.32-.114-.655-.114-1 0-2.417 1.962-4.38 4.38-4.38 1.26 0 2.398.532 3.198 1.384.998-.196 1.935-.56 2.783-1.064-.33 1.024-1.02 1.882-1.93 2.424.888-.105 1.735-.34 2.518-.69-.583.878-1.326 1.65-2.182 2.266z"/></svg>