<svg width="258" height="63" viewBox="0 0 258 63" xmlns="http://www.w3.org/2000/svg"><title>logo</title><g fill="none" fill-rule="evenodd"><path d="M86 14h219.3v37H86z"/><path d="M113.2 43.9c-.9 1.3-2.4 2.4-4.4 3.1-2 .7-4.2 1.1-6.7 1.1s-4.7-.6-6.7-1.8c-1.9-1.2-3.5-2.9-4.5-5.1-1-2.2-1.6-4.7-1.6-7.5v-4c0-4.4 1.1-7.9 3.4-10.5 2.2-2.6 5.2-3.9 9-3.9 3.3 0 5.9.8 7.9 2.5s3.2 4 3.6 6.9h-2.7c-.4-2.3-1.3-4.1-2.9-5.3-1.5-1.2-3.5-1.8-5.9-1.8-3 0-5.3 1.1-7.1 3.2-1.8 2.1-2.6 5.1-2.6 9v3.8c0 2.4.4 4.6 1.2 6.4.8 1.8 2 3.3 3.6 4.3 1.5 1 3.3 1.5 5.3 1.5 2.3 0 4.3-.4 6-1.1 1.1-.5 1.9-1 2.4-1.7v-8.3h-8.6v-2.3h11.3v11.5zm24.9-5.2h-14.5l-3.3 9h-2.8l12.1-32h2.6l12.1 32h-2.8l-3.4-9zm-13.7-2.3h12.8L130.8 19l-6.4 17.4zm48.3 11.3H170l-18.4-27.3v27.3h-2.7v-32h2.7L170 43.1V15.7h2.7v32zM188 31.8l-4.5 4.4v11.4h-2.7v-32h2.7V33l16.4-17.2h3.4L189.9 30l14.4 17.7H201l-13-15.9zm38.8.6h-15v13H229v2.3h-19.9v-32h19.8V18h-17.1v12.1h14.9v2.3h.1zm7.9 15.3v-32h8.9c2.6 0 5 .6 7 1.8 2 1.2 3.7 2.9 4.9 5.1 1.2 2.2 1.7 4.8 1.7 7.6v2.9c0 2.9-.6 5.4-1.7 7.6-1.2 2.2-2.8 3.9-4.9 5.1-2.1 1.2-4.5 1.8-7.2 1.8h-8.7v.1zm2.7-29.7v27.4h6.1c3.4 0 6.1-1.1 8.1-3.3 2-2.2 3.1-5.3 3.1-9.1v-2.8c0-3.7-1-6.6-3-8.8-2-2.2-4.7-3.4-8-3.4h-6.3z" fill="#FFF"/><circle fill="#3498db" cx="31.2" cy="31.6" r="31.2"/><path d="M39.3 32.3V32c0-.6-.5-1-1-1H25.7c-.6 0-1 .5-1 1v.3h14.6zm5.3 2.1H41c.1-.1.1-.3.1-.5 0-.7-.6-1.3-1.3-1.3H24.4c-.7 0-1.3.6-1.3 1.3 0 .2 0 .3.1.5h-1.1c.1-.4-.1-.9-.7-.9s-.8.5-.7.9h-1.1c-.6 0-1.1.5-1.1 1.1v3.9c-3 .6-4.1 3.9-1.4 6 1.4 1.1 3.5 1 5.1.9 2.7-.1 4.9.6 6.7 2.7.6.8 1.7-.3 1.1-1.1-1.4-1.7-3.3-2.8-5.5-3.1-1.2-.2-2.4 0-3.6 0-.7 0-1.4-.1-2-.3-2.1-.5-2.2-3-.3-3.6v.8c0 .6.5 1.1 1.1 1.1h25c.6 0 1.1-.5 1.1-1.1v-6.2c-.1-.6-.6-1.1-1.2-1.1zM29.1 23.2l1.3 6h-2.5c-.4 0-.8.4-.8.8 0 .2.1.4.2.5h9.8c.1-.1.2-.3.2-.5 0-.4-.4-.8-.8-.8h-2.9l-1.4-6.7c1.3-.8 2.1-2.2 2.1-3.9 0-2.5-2.1-4.6-4.6-4.6-2.5 0-4.6 2.1-4.6 4.6-.1 2.4 1.7 4.4 4 4.6zm2-7.2c1.3.6 1.7 2.2 1.1 3.4-.3.8-1.4.1-1.1-.6.3-.6-.1-1.4-.7-1.7-.7-.3-.1-1.4.7-1.1z" fill="#FFF"/></g></svg>