<svg width="63" height="63" viewBox="0 0 63 63" xmlns="http://www.w3.org/2000/svg"><title>Oval + Group</title><g fill="none" fill-rule="evenodd"><circle fill="#3498db" cx="31.2" cy="31.2" r="31.2"/><path d="M39.3 32.3V32c0-.6-.5-1-1-1H25.7c-.6 0-1 .5-1 1v.3h14.6zm5.3 2.1H41c.1-.1.1-.3.1-.5 0-.7-.6-1.3-1.3-1.3H24.4c-.7 0-1.3.6-1.3 1.3 0 .2 0 .3.1.5h-1.1c.1-.4-.1-.9-.7-.9s-.8.5-.7.9h-1.1c-.6 0-1.1.5-1.1 1.1v3.9c-3 .6-4.1 3.9-1.4 6 1.4 1.1 3.5 1 5.1.9 2.7-.1 4.9.6 6.7 2.7.6.8 1.7-.3 1.1-1.1-1.4-1.7-3.3-2.8-5.5-3.1-1.2-.2-2.4 0-3.6 0-.7 0-1.4-.1-2-.3-2.1-.5-2.2-3-.3-3.6v.8c0 .6.5 1.1 1.1 1.1h25c.6 0 1.1-.5 1.1-1.1v-6.2c-.1-.6-.6-1.1-1.2-1.1zM29.1 23.2l1.3 6h-2.5c-.4 0-.8.4-.8.8 0 .2.1.4.2.5h9.8c.1-.1.2-.3.2-.5 0-.4-.4-.8-.8-.8h-2.9l-1.4-6.7c1.3-.8 2.1-2.2 2.1-3.9 0-2.5-2.1-4.6-4.6-4.6-2.5 0-4.6 2.1-4.6 4.6-.1 2.4 1.7 4.4 4 4.6zm2-7.2c1.3.6 1.7 2.2 1.1 3.4-.3.8-1.4.1-1.1-.6.3-.6-.1-1.4-.7-1.7-.7-.3-.1-1.4.7-1.1z" fill="#FFF"/></g></svg>
